<svg width="36" height="36" viewBox="0 0 36 36" fill="none" xmlns="http://www.w3.org/2000/svg">
<path d="M5.92762 13.8906C5.83191 13.8906 5.73424 13.8733 5.6401 13.8359C5.23521 13.6768 5.03592 13.2195 5.19464 12.8146C6.66099 9.08118 9.68271 6.21386 13.4851 4.94759C13.897 4.80935 14.3437 5.03345 14.4811 5.44622C14.6186 5.85899 14.3953 6.30524 13.9825 6.4423C10.6244 7.56048 7.95562 10.093 6.66099 13.3904C6.53929 13.7008 6.24232 13.8906 5.92762 13.8906Z" fill="#FECE46"/>
<path d="M17.7471 31.2224C17.3123 31.2224 16.9594 30.8695 16.9594 30.4346C16.9594 29.9998 17.3123 29.6469 17.7471 29.6469C24.3116 29.6469 29.6528 24.3058 29.6528 17.7409C29.6528 17.306 30.0057 16.9531 30.4405 16.9531C30.8753 16.9531 31.2282 17.306 31.2282 17.7409C31.2282 25.175 25.1808 31.2224 17.7471 31.2224Z" fill="#FECE46"/>
<path d="M17.7238 35.4476C7.9509 35.4476 0 27.4967 0 17.7238C0 7.9509 7.9509 0 17.7238 0C20.4745 0 23.1122 0.613244 25.5617 1.8228C25.9516 2.01539 26.1115 2.48764 25.9189 2.87795C25.7267 3.26788 25.2545 3.42818 24.8638 3.23558C22.6333 2.13395 20.2307 1.57545 17.7238 1.57545C8.81976 1.57545 1.57545 8.81976 1.57545 17.7238C1.57545 26.6279 8.81976 33.8722 17.7238 33.8722C26.6279 33.8722 33.8722 26.6279 33.8722 17.7238C33.8722 14.6123 32.9856 11.5918 31.3085 8.98912C31.0726 8.62323 31.1782 8.13562 31.5441 7.90009C31.9099 7.66496 32.3972 7.76973 32.6331 8.13562C34.474 10.9935 35.4476 14.309 35.4476 17.7238C35.4476 27.4967 27.4967 35.4476 17.7238 35.4476Z" fill="#FECE46"/>
<path d="M31.1596 4.32057H30.0033V3.16419C30.0033 2.72937 29.6504 2.37646 29.2155 2.37646C28.7807 2.37646 28.4278 2.72937 28.4278 3.16419V4.32057H27.2714C26.8366 4.32057 26.4837 4.67347 26.4837 5.10829C26.4837 5.54312 26.8366 5.89602 27.2714 5.89602H28.4278V7.0524C28.4278 7.48722 28.7807 7.84012 29.2155 7.84012C29.6504 7.84012 30.0033 7.48722 30.0033 7.0524V5.89602H31.1596C31.5945 5.89602 31.9474 5.54312 31.9474 5.10829C31.9474 4.67347 31.5949 4.32057 31.1596 4.32057Z" fill="#FECE46"/>
<path d="M22.1957 19.9583C21.7609 19.9583 21.408 20.3112 21.408 20.746C21.408 21.5936 20.7183 22.2833 19.8708 22.2833H15.5769C14.7293 22.2833 14.0396 21.5936 14.0396 20.746V14.7022C14.0396 13.8546 14.7293 13.1646 15.5769 13.1646H19.8708C20.7183 13.1646 21.408 13.8542 21.408 14.7022C21.408 15.137 21.7609 15.4899 22.1957 15.4899C22.6305 15.4899 22.9834 15.137 22.9834 14.7022C22.9834 12.9857 21.5868 11.5891 19.8708 11.5891H18.5115V10.0436C18.5115 9.60876 18.1586 9.25586 17.7238 9.25586C17.289 9.25586 16.9361 9.60876 16.9361 10.0436V11.5891H15.5769C13.8604 11.5891 12.4642 12.9853 12.4642 14.7022V20.746C12.4642 22.4621 13.8604 23.8587 15.5769 23.8587H16.9361V25.4042C16.9361 25.839 17.289 26.1919 17.7238 26.1919C18.1586 26.1919 18.5115 25.839 18.5115 25.4042V23.8587H19.8708C21.5868 23.8587 22.9834 22.4621 22.9834 20.746C22.9834 20.3108 22.6309 19.9583 22.1957 19.9583Z" fill="#0E3145"/>
</svg>
